<svg viewBox="0 0 900 220" xmlns="http://www.w3.org/2000/svg" xmlns:xlink="http://www.w3.org/1999/xlink">
  <defs>
    <style>
      @import url('https://fonts.googleapis.com/css2?family=Orbitron:wght@700;900&amp;family=Inter:wght@400;500&amp;display=swap');
    </style>
    <!-- Dark background gradient like site -->
    <linearGradient id="bg" x1="0%" y1="0%" x2="100%" y2="100%">
      <stop offset="0%" style="stop-color:#0d0d0d"/>
      <stop offset="100%" style="stop-color:#111827"/>
    </linearGradient>
    <!-- Purple glow for VibeCode text -->
    <linearGradient id="textGrad" x1="0%" y1="0%" x2="100%" y2="0%">
      <stop offset="0%" style="stop-color:#a78bfa"/>
      <stop offset="50%" style="stop-color:#c4b5fd"/>
      <stop offset="100%" style="stop-color:#818cf8"/>
    </linearGradient>
    <!-- Glow filter -->
    <filter id="glow" x="-20%" y="-50%" width="140%" height="200%">
      <feGaussianBlur stdDeviation="8" result="coloredBlur"/>
      <feMerge>
        <feMergeNode in="coloredBlur"/>
        <feMergeNode in="SourceGraphic"/>
      </feMerge>
    </filter>
    <!-- Subtle glow for penguin -->
    <filter id="penguinGlow" x="-30%" y="-30%" width="160%" height="160%">
      <feGaussianBlur stdDeviation="4" result="coloredBlur"/>
      <feMerge>
        <feMergeNode in="coloredBlur"/>
        <feMergeNode in="SourceGraphic"/>
      </feMerge>
    </filter>
    <!-- Wave mask -->
    <clipPath id="waveClip">
      <rect width="900" height="220"/>
    </clipPath>
  </defs>

  <!-- Background -->
  <rect width="900" height="220" fill="url(#bg)" rx="12"/>

  <!-- Subtle grid lines -->
  <g opacity="0.04" stroke="#a78bfa" stroke-width="1">
    <line x1="0" y1="40" x2="900" y2="40"/>
    <line x1="0" y1="80" x2="900" y2="80"/>
    <line x1="0" y1="120" x2="900" y2="120"/>
    <line x1="0" y1="160" x2="900" y2="160"/>
    <line x1="0" y1="200" x2="900" y2="200"/>
    <line x1="150" y1="0" x2="150" y2="220"/>
    <line x1="300" y1="0" x2="300" y2="220"/>
    <line x1="450" y1="0" x2="450" y2="220"/>
    <line x1="600" y1="0" x2="600" y2="220"/>
    <line x1="750" y1="0" x2="750" y2="220"/>
  </g>

  <!-- Purple glow blob center -->
  <ellipse cx="450" cy="110" rx="200" ry="80" fill="#7c3aed" opacity="0.07" filter="url(#glow)"/>

  <!-- Linux Tux penguin (inline SVG path approximation, colored white/grey like devicons) -->
  <!-- Tux body - simplified iconic shape -->
  <g transform="translate(310, 42) scale(0.72)" filter="url(#penguinGlow)">
    <!-- Body -->
    <ellipse cx="55" cy="105" rx="38" ry="48" fill="#1a1a1a"/>
    <!-- White belly -->
    <ellipse cx="55" cy="112" rx="24" ry="34" fill="#f0f0f0"/>
    <!-- Head -->
    <circle cx="55" cy="48" r="28" fill="#1a1a1a"/>
    <!-- Eyes -->
    <circle cx="45" cy="44" r="5" fill="white"/>
    <circle cx="65" cy="44" r="5" fill="white"/>
    <circle cx="46" cy="44" r="2.5" fill="#1a1a1a"/>
    <circle cx="66" cy="44" r="2.5" fill="#1a1a1a"/>
    <!-- Beak -->
    <polygon points="55,54 48,60 62,60" fill="#f97316"/>
    <!-- Feet -->
    <ellipse cx="42" cy="155" rx="12" ry="6" fill="#f97316" transform="rotate(-15, 42, 155)"/>
    <ellipse cx="68" cy="155" rx="12" ry="6" fill="#f97316" transform="rotate(15, 68, 155)"/>
    <!-- Wings -->
    <ellipse cx="22" cy="100" rx="10" ry="28" fill="#1a1a1a" transform="rotate(-10, 22, 100)"/>
    <ellipse cx="88" cy="100" rx="10" ry="28" fill="#1a1a1a" transform="rotate(10, 88, 100)"/>
  </g>

  <!-- VibeCode text -->
  <text
    x="450"
    y="125"
    text-anchor="middle"
    font-family="Orbitron, 'Space Grotesk', monospace"
    font-size="72"
    font-weight="900"
    fill="url(#textGrad)"
    filter="url(#glow)"
    letter-spacing="3"
  >VibeCode</text>

  <!-- Subtitle -->
  <text
    x="450"
    y="162"
    text-anchor="middle"
    font-family="Inter, sans-serif"
    font-size="15"
    font-weight="400"
    fill="#9ca3af"
    letter-spacing="1"
  >Your Interactive Programming Reference for Beginners</text>

  <!-- Bottom accent line -->
  <rect x="350" y="185" width="200" height="2" rx="1" fill="url(#textGrad)" opacity="0.6"/>

  <!-- Corner decorations -->
  <g opacity="0.15" stroke="#a78bfa" stroke-width="1.5" fill="none">
    <polyline points="15,35 15,15 35,15"/>
    <polyline points="865,35 865,15 845,15"/>
    <polyline points="15,185 15,205 35,205"/>
    <polyline points="865,185 865,205 845,205"/>
  </g>
</svg>
